<?xml version="1.0" encoding="utf-8"?>
<!-- Generator: Adobe Illustrator 24.0.3, SVG Export Plug-In . SVG Version: 6.00 Build 0)  -->
<svg version="1.1" id="Capa_1" xmlns="http://www.w3.org/2000/svg" xmlns:xlink="http://www.w3.org/1999/xlink" x="0px" y="0px"
	 viewBox="0 0 512 512" style="enable-background:new 0 0 512 512;" xml:space="preserve">
<style type="text/css">
	.st0{fill:#FFFFFF;}
</style>
<g>
	<g>
		<path class="st0" d="M407,0H105C47.1,0,0,47.1,0,105v302c0,57.9,47.1,105,105,105h302c57.9,0,105-47.1,105-105V105
			C512,47.1,464.9,0,407,0z M383,316v15v25c0,22.1-17.9,40-40,40h-25c-22.1,0-40-17.9-40-40s17.9-40,40-40h35V168.8l-144,24.8V346
			v15v25c0,22.1-17.9,40-40,40h-25c-22.1,0-40-17.9-40-40s17.9-40,40-40h35V118.4l204-35.2V316z"/>
	</g>
</g>
</svg>
